<?xml version="1.0" standalone="no"?><svg xmlns:xlink="http://www.w3.org/1999/xlink" xmlns="http://www.w3.org/2000/svg" viewBox="0 0 1000 1666.6832340944409" preserveAspectRatio="xMaxYMax slice"><g transform="scale(3.3134855548597235)"><rect x="0" y="0" width="301.79999999999995" height="503" fill="#ffffff"/><rect x="0" y="0" width="100.6" height="100.6" fill="#98bec9"/><path d="M 0 0 A 100.6 100.6 0 0 1  100.6 100.6 L 0 0 A 100.6 100.6 0 0 0 100.6 100.6" fill="#d1e2e7"/><rect x="100.6" y="0" width="100.6" height="100.6" fill="#ffffff"/><rect x="100.6" y="0" width="50.3" height="50.3" fill="#8168ff"/><path d="M 100.6 50.3 A 50.3 50.3 0 0 1  150.89999999999998 0 L 100.6 50.3 A 50.3 50.3 0 0 0 150.89999999999998 0" fill="#8c75ff"/><rect x="150.9" y="0" width="50.3" height="50.3" fill="#6aa2b1"/><path d="M 150.9 50.3 A 50.3 50.3 0 0 1  201.2 0 L 150.9 50.3 A 50.3 50.3 0 0 0 201.2 0" fill="#cbdbe1"/><rect x="100.6" y="50.3" width="50.3" height="50.3" fill="#e6e1ff"/><path d="M 100.6 100.6 A 50.3 50.3 0 0 0 150.89999999999998 50.3 L 100.6 50.3L100.6 100.6" fill="#a0bec8"/><rect x="150.9" y="50.3" width="50.3" height="50.3" fill="#fefefe"/><path d="M 150.9 100.6 A 50.3 50.3 0 0 0 201.2 50.3 L 150.9 50.3L150.9 100.6" fill="#f5f8f9"/><rect x="201.2" y="0" width="100.6" height="100.6" fill="#ffffff"/><rect x="201.2" y="0" width="50.3" height="50.3" fill="#5f9aab"/><path d="M 201.2 0 A 50.3 50.3 0 0 1  251.5 50.3 L 201.2 0 A 50.3 50.3 0 0 0 251.5 50.3" fill="#b3cbd3"/><rect x="251.5" y="0" width="50.3" height="50.3" fill="#a7c2cc"/><path d="M 251.5 0 A 50.3 50.3 0 0 1  301.8 50.3 L 251.5 0 A 50.3 50.3 0 0 0 301.8 50.3" fill="#ffffff"/><rect x="201.2" y="50.3" width="50.3" height="50.3" fill="#b6cdd5"/><path d="M 201.2 100.6 A 50.3 50.3 0 0 1  251.5 50.3 L 201.2 100.6 A 50.3 50.3 0 0 0 251.5 50.3" fill="#ddd7ff"/><rect x="251.5" y="50.3" width="50.3" height="50.3" fill="#c4b8ff"/><path d="M 251.5 50.3 A 50.3 50.3 0 0 0 301.8 100.6 L 301.8 50.3L251.5 50.3" fill="#99b9c4"/><rect x="0" y="100.6" width="100.6" height="100.6" fill="#9d8aff"/><path d="M 0 201.2 A 100.6 100.6 0 0 1  100.6 100.6 L 0 201.2 A 100.6 100.6 0 0 0 100.6 100.6" fill="#a1c4ce"/><rect x="100.6" y="100.6" width="100.6" height="100.6" fill="#7458ff"/><path d="M 100.6 100.6 A 100.6 100.6 0 0 1  201.2 201.2 L 100.6 100.6 A 100.6 100.6 0 0 0 201.2 201.2" fill="#8fb9c5"/><rect x="201.2" y="100.6" width="100.6" height="100.6" fill="#ffffff"/><rect x="201.2" y="100.6" width="50.3" height="50.3" fill="#b7a9ff"/><path d="M 201.2 150.89999999999998 A 50.3 50.3 0 0 1  251.5 100.6 L 201.2 150.89999999999998 A 50.3 50.3 0 0 0 251.5 100.6" fill="#aeccd5"/><rect x="251.5" y="100.6" width="50.3" height="50.3" fill="#9d89ff"/><path d="M 251.5 150.89999999999998 A 50.3 50.3 0 0 0 301.8 100.6 L 251.5 100.6L251.5 150.89999999999998" fill="#a0c4ce"/><rect x="201.2" y="150.9" width="50.3" height="50.3" fill="#e4edf0"/><path d="M 201.2 150.9 A 50.3 50.3 0 0 1  251.5 201.2 L 201.2 150.9 A 50.3 50.3 0 0 0 251.5 201.2" fill="#f0f5f6"/><rect x="251.5" y="150.9" width="50.3" height="50.3" fill="#fbfbff"/><path d="M 251.5 150.9 A 50.3 50.3 0 0 1 301.8 201.2 L 251.5 201.2L251.5 150.9" fill="#a9c4ce"/><rect x="0" y="201.2" width="100.6" height="100.6" fill="#e8f0f3"/><path d="M 0 301.79999999999995 A 100.6 100.6 0 0 1  100.6 201.2 L 0 301.79999999999995 A 100.6 100.6 0 0 0 100.6 201.2" fill="#a4c6cf"/><rect x="100.6" y="201.2" width="100.6" height="100.6" fill="#ffffff"/><rect x="100.6" y="201.2" width="50.3" height="50.3" fill="#9782ff"/><path d="M 100.6 201.2 A 50.3 50.3 0 0 1  150.89999999999998 251.5 L 100.6 201.2 A 50.3 50.3 0 0 0 150.89999999999998 251.5" fill="#87b4c0"/><rect x="150.9" y="201.2" width="50.3" height="50.3" fill="#ecf3f5"/><path d="M 150.9 201.2 A 50.3 50.3 0 0 1 201.2 251.5 L 150.9 251.5L150.9 201.2" fill="#e5eff2"/><rect x="100.6" y="251.5" width="50.3" height="50.3" fill="#c4b8ff"/><path d="M 100.6 251.5 A 50.3 50.3 0 0 1  150.89999999999998 301.8 L 100.6 251.5 A 50.3 50.3 0 0 0 150.89999999999998 301.8" fill="#b4d0d8"/><rect x="150.9" y="251.5" width="50.3" height="50.3" fill="#dfebee"/><path d="M 150.9 301.8 A 50.3 50.3 0 0 0 201.2 251.5 L 150.9 251.5L150.9 301.8" fill="#609bac"/><rect x="201.2" y="201.2" width="100.6" height="100.6" fill="#ffffff"/><rect x="201.2" y="201.2" width="50.3" height="50.3" fill="#a8c3cd"/><path d="M 201.2 251.5 A 50.3 50.3 0 0 1  251.5 201.2 L 251.5 251.5L201.2 251.5" fill="#d7cfff"/><rect x="251.5" y="201.2" width="50.3" height="50.3" fill="#dbd4ff"/><path d="M 251.5 251.5 A 50.3 50.3 0 0 0 301.8 201.2 L 251.5 201.2L251.5 251.5" fill="#d1c8ff"/><rect x="201.2" y="251.5" width="50.3" height="50.3" fill="#d0dfe4"/><path d="M 201.2 251.5 A 50.3 50.3 0 0 0 251.5 301.8 L 251.5 251.5L201.2 251.5" fill="#a998ff"/><rect x="251.5" y="251.5" width="50.3" height="50.3" fill="#dbd4ff"/><path d="M 251.5 251.5 A 50.3 50.3 0 0 1  301.8 301.8 L 251.5 251.5 A 50.3 50.3 0 0 0 301.8 301.8" fill="#ecf2f4"/><rect x="0" y="301.79999999999995" width="100.6" height="100.6" fill="#ffffff"/><rect x="0" y="301.8" width="50.3" height="50.3" fill="#a2c5ce"/><path d="M 0 301.8 A 50.3 50.3 0 0 1 50.3 352.1 L 0 352.1L0 301.8" fill="#dde8eb"/><rect x="50.3" y="301.8" width="50.3" height="50.3" fill="#ad9dff"/><path d="M 50.3 352.1 A 50.3 50.3 0 0 0 100.6 301.8 L 50.3 301.8L50.3 352.1" fill="#98b8c4"/><rect x="0" y="352.1" width="50.3" height="50.3" fill="#c1d4db"/><path d="M 0 402.40000000000003 A 50.3 50.3 0 0 1  50.3 352.1 L 0 402.40000000000003 A 50.3 50.3 0 0 0 50.3 352.1" fill="#f0edff"/><rect x="50.3" y="352.1" width="50.3" height="50.3" fill="#cddde2"/><path d="M 50.3 352.1 A 50.3 50.3 0 0 1 100.6 402.40000000000003 L 50.3 402.40000000000003L50.3 352.1" fill="#aec7d0"/><rect x="100.6" y="301.8" width="100.6" height="100.6" fill="#a8c4cd"/><path d="M 100.6 402.4 A 100.6 100.6 0 0 1  201.2 301.8 L 100.6 402.4 A 100.6 100.6 0 0 0 201.2 301.8" fill="#f7f5ff"/><rect x="201.2" y="301.79999999999995" width="100.6" height="100.6" fill="#ffffff"/><rect x="201.2" y="301.8" width="50.3" height="50.3" fill="#8067ff"/><path d="M 201.2 301.8 A 50.3 50.3 0 0 1  251.5 352.1 L 201.2 301.8 A 50.3 50.3 0 0 0 251.5 352.1" fill="#abc6cf"/><rect x="251.5" y="301.8" width="50.3" height="50.3" fill="#90b3bf"/><path d="M 251.5 301.8 A 50.3 50.3 0 0 1 301.8 352.1 L 251.5 352.1L251.5 301.8" fill="#c9beff"/><rect x="201.2" y="352.1" width="50.3" height="50.3" fill="#a6c2cc"/><path d="M 201.2 352.1 A 50.3 50.3 0 0 1 251.5 402.40000000000003 L 201.2 402.40000000000003L201.2 352.1" fill="#e6eef1"/><rect x="251.5" y="352.1" width="50.3" height="50.3" fill="#f8fbfb"/><path d="M 251.5 352.1 A 50.3 50.3 0 0 1 301.8 402.40000000000003 L 251.5 402.40000000000003L251.5 352.1" fill="#afc8d1"/><rect x="0" y="402.4" width="100.6" height="100.6" fill="#e2ebee"/><path d="M 0 402.4 A 100.6 100.6 0 0 1 100.6 503 L 0 503L0 402.4" fill="#74a8b7"/><rect x="100.6" y="402.4" width="100.6" height="100.6" fill="#ffffff"/><rect x="100.6" y="402.4" width="50.3" height="50.3" fill="#9883ff"/><path d="M 100.6 402.4 A 50.3 50.3 0 0 0 150.89999999999998 452.7 L 150.89999999999998 402.4L100.6 402.4" fill="#bdd2d9"/><rect x="150.9" y="402.4" width="50.3" height="50.3" fill="#7dadbb"/><path d="M 150.9 452.7 A 50.3 50.3 0 0 1  201.2 402.4 L 201.2 452.7L150.9 452.7" fill="#c3b7ff"/><rect x="100.6" y="452.7" width="50.3" height="50.3" fill="#bed2d9"/><path d="M 100.6 503 A 50.3 50.3 0 0 1  150.89999999999998 452.7 L 100.6 503 A 50.3 50.3 0 0 0 150.89999999999998 452.7" fill="#f3f7f8"/><rect x="150.9" y="452.7" width="50.3" height="50.3" fill="#95b6c2"/><path d="M 150.9 452.7 A 50.3 50.3 0 0 0 201.2 503 L 201.2 452.7L150.9 452.7" fill="#f6f9fa"/><rect x="201.2" y="402.4" width="100.6" height="100.6" fill="#ffffff"/><rect x="201.2" y="402.4" width="50.3" height="50.3" fill="#d9e5e9"/><path d="M 201.2 402.4 A 50.3 50.3 0 0 0 251.5 452.7 L 251.5 402.4L201.2 402.4" fill="#cabfff"/><rect x="251.5" y="402.4" width="50.3" height="50.3" fill="#9fbdc8"/><path d="M 251.5 452.7 A 50.3 50.3 0 0 1  301.8 402.4 L 251.5 452.7 A 50.3 50.3 0 0 0 301.8 402.4" fill="#b7d2d9"/><rect x="201.2" y="452.7" width="50.3" height="50.3" fill="#9a86ff"/><path d="M 201.2 503 A 50.3 50.3 0 0 1  251.5 452.7 L 201.2 503 A 50.3 50.3 0 0 0 251.5 452.7" fill="#e3ecef"/><rect x="251.5" y="452.7" width="50.3" height="50.3" fill="#f0edff"/><path d="M 251.5 503 A 50.3 50.3 0 0 1  301.8 452.7 L 301.8 503L251.5 503" fill="#d2e0e5"/></g></svg>