<?xml version="1.0" standalone="no"?><svg xmlns:xlink="http://www.w3.org/1999/xlink" xmlns="http://www.w3.org/2000/svg" viewBox="0 0 1000 1500.0238572382862" preserveAspectRatio="xMaxYMax slice"><g transform="scale(2.9821547857620003)"><rect x="0" y="0" width="335.3333333333333" height="503" fill="#ffffff"/><rect x="0" y="0" width="83.83" height="83.83" fill="#7aacba"/><path d="M 0 0 A 83.83 83.83 0 0 1  83.83 83.83 L 0 0 A 83.83 83.83 0 0 0 83.83 83.83" fill="#fafcfc"/><rect x="83.83" y="0" width="83.83" height="83.83" fill="#f4f8f9"/><path d="M 83.83 83.83 A 83.83 83.83 0 0 1  167.66 0 L 167.66 83.83L83.83 83.83" fill="#e8e4ff"/><rect x="167.67" y="0" width="83.83" height="83.83" fill="#dde8ec"/><path d="M 167.67 0 A 83.83 83.83 0 0 1  251.5 83.83 L 167.67 0 A 83.83 83.83 0 0 0 251.5 83.83" fill="#f5f3ff"/><rect x="251.5" y="0" width="83.83" height="83.83" fill="#b7ced6"/><path d="M 251.5 83.83 A 83.83 83.83 0 0 1  335.33 0 L 251.5 83.83 A 83.83 83.83 0 0 0 335.33 0" fill="#8f79ff"/><rect x="0" y="83.83" width="83.83" height="83.83" fill="#f0f5f6"/><path d="M 0 83.83 A 83.83 83.83 0 0 1  83.83 167.66 L 0 83.83 A 83.83 83.83 0 0 0 83.83 167.66" fill="#bcd5dc"/><rect x="83.83" y="83.83" width="83.83" height="83.83" fill="#b6cdd5"/><path d="M 83.83 167.66 A 83.83 83.83 0 0 1  167.66 83.83 L 83.83 167.66 A 83.83 83.83 0 0 0 167.66 83.83" fill="#a3c5cf"/><rect x="167.67" y="83.83" width="83.83" height="83.83" fill="#ecf2f4"/><path d="M 167.67 83.83 A 83.83 83.83 0 0 1  251.5 167.66 L 167.67 83.83 A 83.83 83.83 0 0 0 251.5 167.66" fill="#67a0b0"/><rect x="251.5" y="83.83" width="83.83" height="83.83" fill="#adcbd4"/><path d="M 251.5 83.83 A 83.83 83.83 0 0 0 335.33 167.66 L 335.33 83.83L251.5 83.83" fill="#b8ced6"/><rect x="0" y="167.67" width="83.83" height="83.83" fill="#f8fafb"/><path d="M 0 167.67 A 83.83 83.83 0 0 1  83.83 251.5 L 0 167.67 A 83.83 83.83 0 0 0 83.83 251.5" fill="#9a86ff"/><rect x="83.83" y="167.67" width="83.83" height="83.83" fill="#f4f7f8"/><path d="M 83.83 251.5 A 83.83 83.83 0 0 1  167.66 167.67 L 83.83 251.5 A 83.83 83.83 0 0 0 167.66 167.67" fill="#8c76ff"/><rect x="167.67" y="167.67" width="83.83" height="83.83" fill="#629dad"/><path d="M 167.67 167.67 A 83.83 83.83 0 0 1  251.5 251.5 L 167.67 167.67 A 83.83 83.83 0 0 0 251.5 251.5" fill="#70a5b4"/><rect x="251.5" y="167.67" width="83.83" height="83.83" fill="#9abac5"/><path d="M 251.5 167.67 A 83.83 83.83 0 0 1  335.33 251.5 L 251.5 167.67 A 83.83 83.83 0 0 0 335.33 251.5" fill="#e8f1f3"/><rect x="0" y="251.5" width="83.83" height="83.83" fill="#67a0b0"/><path d="M 0 335.33 A 83.83 83.83 0 0 1  83.83 251.5 L 0 335.33 A 83.83 83.83 0 0 0 83.83 251.5" fill="#a8c8d2"/><rect x="83.83" y="251.5" width="83.83" height="83.83" fill="#a998ff"/><path d="M 83.83 335.33 A 83.83 83.83 0 0 1  167.66 251.5 L 167.66 335.33L83.83 335.33" fill="#9c88ff"/><rect x="167.67" y="251.5" width="83.83" height="83.83" fill="#d9e5e9"/><path d="M 167.67 335.33 A 83.83 83.83 0 0 0 251.5 251.5 L 167.67 251.5L167.67 335.33" fill="#629dad"/><rect x="251.5" y="251.5" width="83.83" height="83.83" fill="#7b61ff"/><path d="M 251.5 335.33 A 83.83 83.83 0 0 1  335.33 251.5 L 251.5 335.33 A 83.83 83.83 0 0 0 335.33 251.5" fill="#efecff"/><rect x="0" y="335.33" width="83.83" height="83.83" fill="#9a86ff"/><path d="M 0 419.15999999999997 A 83.83 83.83 0 0 1  83.83 335.33 L 0 419.15999999999997 A 83.83 83.83 0 0 0 83.83 335.33" fill="#e7e2ff"/><rect x="83.83" y="335.33" width="83.83" height="83.83" fill="#f8fafb"/><path d="M 83.83 335.33 A 83.83 83.83 0 0 1  167.66 419.15999999999997 L 83.83 335.33 A 83.83 83.83 0 0 0 167.66 419.15999999999997" fill="#fefefe"/><rect x="167.67" y="335.33" width="83.83" height="83.83" fill="#a795ff"/><path d="M 167.67 419.15999999999997 A 83.83 83.83 0 0 1  251.5 335.33 L 167.67 419.15999999999997 A 83.83 83.83 0 0 0 251.5 335.33" fill="#67a0b0"/><rect x="251.5" y="335.33" width="83.83" height="83.83" fill="#a2bfca"/><path d="M 251.5 419.15999999999997 A 83.83 83.83 0 0 1  335.33 335.33 L 251.5 419.15999999999997 A 83.83 83.83 0 0 0 335.33 335.33" fill="#bbd0d8"/><rect x="0" y="419.17" width="83.83" height="83.83" fill="#97bec9"/><path d="M 0 419.17 A 83.83 83.83 0 0 1  83.83 503 L 0 419.17 A 83.83 83.83 0 0 0 83.83 503" fill="#d4e4e9"/><rect x="83.83" y="419.17" width="83.83" height="83.83" fill="#71a6b5"/><path d="M 83.83 503 A 83.83 83.83 0 0 1  167.66 419.17 L 167.66 503L83.83 503" fill="#a897ff"/><rect x="167.67" y="419.17" width="83.83" height="83.83" fill="#ddd6ff"/><path d="M 167.67 419.17 A 83.83 83.83 0 0 1  251.5 503 L 167.67 419.17 A 83.83 83.83 0 0 0 251.5 503" fill="#d3e4e8"/><rect x="251.5" y="419.17" width="83.83" height="83.83" fill="#b8aaff"/><path d="M 251.5 503 A 83.83 83.83 0 0 1  335.33 419.17 L 335.33 503L251.5 503" fill="#b3a4ff"/></g></svg>